# xmcd
#
# Track frame offsets: 
#        150
#        9511
#        25890
#        41649
#        54359
#        74724
#        91022
#        108143
#        118447
#        136215
#        145814
#        161251
#        175683
#        187806
#        201199
#        213562
#        228296
#
# Disc length: 3266 seconds
#
# Revision: 0
# Processed by: cddbd v1.5.2PL0 Copyright (c) Steve Scherf et al.
# Submitted via: ExactAudioCopyFreeDBPlugin 1.0
#
DISCID=e30cc011
DTITLE=Blake Shelton - Cheers, It's Christmas
DYEAR=2017
DGENRE=Christmas
TTITLE0=Jingle Bell Rock
TTITLE1=White Christmas
TTITLE2=Oklahoma Christmas (featuring Reba)
TTITLE3=Let It Snow! Let It Snow! Let It Snow!
TTITLE4=There's A New Kid In Town (featuring Kelly Clarkson)
TTITLE5=Santa's Got A Choo Choo Train
TTITLE6=Home (featuring Michael Buble)
TTITLE7=Winter Wonderland
TTITLE8=The Christmas Song
TTITLE9=Blue Christmas
TTITLE10=I'll Be Home For Christmas
TTITLE11=Silver Bells (featuring Xenia)
TTITLE12=Time For Me To Come Home (featuring Dorothy Shakleford)
TTITLE13=The Very Best Time Of Year (featuring Trypta-Phunk)
TTITLE14=Savior's Shadow
TTITLE15=Two Step 'Round The Christmas Tree
TTITLE16=Christmas Eve
EXTD=
EXTT0=
EXTT1=
EXTT2=
EXTT3=
EXTT4=
EXTT5=
EXTT6=
EXTT7=
EXTT8=
EXTT9=
EXTT10=
EXTT11=
EXTT12=
EXTT13=
EXTT14=
EXTT15=
EXTT16=
PLAYORDER=
